{
  "asset": {
    "version": "2.0",
    "generator": "ModelConverterX"
  },
  "scene": 0,
  "scenes": [
    {
      "nodes": [
        0
      ]
    }
  ],
  "nodes": [
    {
      "name": "node0",
      "children": [
        1,
        2,
        3,
        4,
        5
      ]
    },
    {
      "name": "node1",
      "mesh": 0
    },
    {
      "name": "node2",
      "mesh": 1
    },
    {
      "name": "node3",
      "mesh": 2
    },
    {
      "name": "node4",
      "mesh": 3
    },
    {
      "name": "node5",
      "mesh": 4
    }
  ],
  "meshes": [
    {
      "primitives": [
        {
          "attributes": {
            "POSITION": 0,
            "NORMAL": 1,
            "TEXCOORD_0": 2
          },
          "indices": 3,
          "mode": 4,
          "material": 0
        }
      ],
      "name": "part000"
    },
    {
      "primitives": [
        {
          "attributes": {
            "POSITION": 4,
            "NORMAL": 5,
            "TEXCOORD_0": 6
          },
          "indices": 7,
          "mode": 4,
          "material": 2
        }
      ],
      "name": "part001"
    },
    {
      "primitives": [
        {
          "attributes": {
            "POSITION": 8,
            "NORMAL": 9,
            "TEXCOORD_0": 10
          },
          "indices": 11,
          "mode": 4,
          "material": 1
        }
      ],
      "name": "part002"
    },
    {
      "primitives": [
        {
          "attributes": {
            "POSITION": 12,
            "NORMAL": 13,
            "TEXCOORD_0": 14
          },
          "indices": 15,
          "mode": 4,
          "material": 4
        }
      ],
      "name": "part003"
    },
    {
      "primitives": [
        {
          "attributes": {
            "POSITION": 16,
            "NORMAL": 17,
            "TEXCOORD_0": 18
          },
          "indices": 19,
          "mode": 4,
          "material": 3
        }
      ],
      "name": "part004"
    }
  ],
  "accessors": [
    {
      "bufferView": 1,
      "byteOffset": 0,
      "componentType": 5126,
      "count": 96,
      "type": "VEC3",
      "min": [
        -20.0,
        1.0,
        -3.0
      ],
      "max": [
        20.0,
        1.29242,
        3.0
      ]
    },
    {
      "bufferView": 2,
      "byteOffset": 0,
      "componentType": 5126,
      "count": 96,
      "type": "VEC3"
    },
    {
      "bufferView": 3,
      "byteOffset": 0,
      "componentType": 5126,
      "count": 96,
      "type": "VEC2"
    },
    {
      "bufferView": 0,
      "byteOffset": 0,
      "componentType": 5125,
      "count": 240,
      "type": "SCALAR"
    },
    {
      "bufferView": 1,
      "byteOffset": 1152,
      "componentType": 5126,
      "count": 3512,
      "type": "VEC3",
      "min": [
        -20.0,
        -1.0,
        -12.02474
      ],
      "max": [
        20.0,
        3.15003,
        6.98074
      ]
    },
    {
      "bufferView": 2,
      "byteOffset": 1152,
      "componentType": 5126,
      "count": 3512,
      "type": "VEC3"
    },
    {
      "bufferView": 3,
      "byteOffset": 768,
      "componentType": 5126,
      "count": 3512,
      "type": "VEC2"
    },
    {
      "bufferView": 0,
      "byteOffset": 960,
      "componentType": 5125,
      "count": 18414,
      "type": "SCALAR"
    },
    {
      "bufferView": 1,
      "byteOffset": 43296,
      "componentType": 5126,
      "count": 10,
      "type": "VEC3",
      "min": [
        -0.0122,
        0.29028,
        -12.02474
      ],
      "max": [
        0.0122,
        3.05778,
        -7.79235
      ]
    },
    {
      "bufferView": 2,
      "byteOffset": 43296,
      "componentType": 5126,
      "count": 10,
      "type": "VEC3"
    },
    {
      "bufferView": 3,
      "byteOffset": 28864,
      "componentType": 5126,
      "count": 10,
      "type": "VEC2"
    },
    {
      "bufferView": 0,
      "byteOffset": 74616,
      "componentType": 5125,
      "count": 18,
      "type": "SCALAR"
    },
    {
      "bufferView": 1,
      "byteOffset": 43416,
      "componentType": 5126,
      "count": 3098,
      "type": "VEC3",
      "min": [
        -1.0,
        -1.0,
        -12.02474
      ],
      "max": [
        1.0,
        3.05778,
        6.98074
      ]
    },
    {
      "bufferView": 2,
      "byteOffset": 43416,
      "componentType": 5126,
      "count": 3098,
      "type": "VEC3"
    },
    {
      "bufferView": 3,
      "byteOffset": 28944,
      "componentType": 5126,
      "count": 3098,
      "type": "VEC2"
    },
    {
      "bufferView": 0,
      "byteOffset": 74688,
      "componentType": 5125,
      "count": 17316,
      "type": "SCALAR"
    },
    {
      "bufferView": 1,
      "byteOffset": 80592,
      "componentType": 5126,
      "count": 312,
      "type": "VEC3",
      "min": [
        -3.0622,
        3.05778,
        -12.02474
      ],
      "max": [
        3.0622,
        3.15003,
        -9.01909
      ]
    },
    {
      "bufferView": 2,
      "byteOffset": 80592,
      "componentType": 5126,
      "count": 312,
      "type": "VEC3"
    },
    {
      "bufferView": 3,
      "byteOffset": 53728,
      "componentType": 5126,
      "count": 312,
      "type": "VEC2"
    },
    {
      "bufferView": 0,
      "byteOffset": 143952,
      "componentType": 5125,
      "count": 840,
      "type": "SCALAR"
    }
  ],
  "materials": [
    {
      "pbrMetallicRoughness": {
        "baseColorFactor": [
          1.0,
          0.64705878496170044,
          0.0,
          1.0
        ],
        "roughnessFactor": 1.0,
        "metallicFactor": 0.0
      },
      "emissiveFactor": [
        0.0,
        0.0,
        0.0
      ]
    },
    {
      "pbrMetallicRoughness": {
        "baseColorFactor": [
          0.46666669845581055,
          0.53333330154418945,
          0.60000002384185791,
          1.0
        ],
        "roughnessFactor": 1.0,
        "metallicFactor": 0.0
      },
      "emissiveFactor": [
        0.0,
        0.0,
        0.0
      ]
    },
    {
      "pbrMetallicRoughness": {
        "baseColorFactor": [
          0.64313727617263794,
          0.698039174079895,
          0.7333332896232605,
          1.0
        ],
        "roughnessFactor": 1.0,
        "metallicFactor": 0.0
      },
      "emissiveFactor": [
        0.0,
        0.0,
        0.0
      ]
    },
    {
      "pbrMetallicRoughness": {
        "baseColorFactor": [
          0.54117649793624878,
          0.16862750053405762,
          0.886274516582489,
          1.0
        ],
        "roughnessFactor": 1.0,
        "metallicFactor": 0.0
      },
      "emissiveFactor": [
        0.0,
        0.0,
        0.0
      ]
    },
    {
      "pbrMetallicRoughness": {
        "baseColorFactor": [
          0.11764709651470184,
          0.56470590829849243,
          1.0,
          1.0
        ],
        "roughnessFactor": 1.0,
        "metallicFactor": 0.0
      },
      "emissiveFactor": [
        0.0,
        0.0,
        0.0
      ]
    }
  ],
  "bufferViews": [
    {
      "buffer": 0,
      "byteOffset": 0,
      "byteLength": 147312
    },
    {
      "buffer": 0,
      "byteOffset": 147312,
      "byteLength": 84336,
      "byteStride": 12
    },
    {
      "buffer": 0,
      "byteOffset": 231648,
      "byteLength": 84336,
      "byteStride": 12
    },
    {
      "buffer": 0,
      "byteOffset": 315984,
      "byteLength": 56224,
      "byteStride": 8
    }
  ],
  "buffers": [
    {
      "byteLength": 372208,
      "uri": "Glider.bin"
    }
  ]
}